<svg xmlns="http://www.w3.org/2000/svg" width="1em" height="1em" viewBox="0 0 27 31" fill="none" class="DesktopOrder_loyaltyLevelsIcon__U2gkL"><g filter="url(#Level0LoyaltyRewardIndicator_svg__a)"><path d="m.451 24.921 7.67-13.283 8.036 4.64-7.67 13.283a.5.5 0 0 1-.874-.015l-2.145-4.035-4.566.16a.5.5 0 0 1-.45-.75Z" fill="url(#Level0LoyaltyRewardIndicator_svg__b)"/></g><g filter="url(#Level0LoyaltyRewardIndicator_svg__c)"><path d="m25.89 24.921-7.67-13.283-8.036 4.64 7.669 13.283a.5.5 0 0 0 .874-.015l2.145-4.035 4.567.16a.5.5 0 0 0 .45-.75Z" fill="url(#Level0LoyaltyRewardIndicator_svg__d)"/></g><g filter="url(#Level0LoyaltyRewardIndicator_svg__e)"><ellipse cx="12.82" cy="10.911" rx="10.91" ry="10.911" fill="url(#Level0LoyaltyRewardIndicator_svg__f)"/></g><path d="M20.32 10.91a7.5 7.5 0 1 1-15 0 7.5 7.5 0 1 1 15 0Z" stroke="url(#Level0LoyaltyRewardIndicator_svg__g)"/><g opacity="0.1" filter="url(#Level0LoyaltyRewardIndicator_svg__h)"><path d="m13.708 6.234 1.47 2.788 3.107.537-2.197 2.26.449 3.12-2.829-1.39-2.829 1.39.45-3.12L9.13 9.56l3.106-.537 1.471-2.788Z" fill="#FFFEF9"/></g><path d="M9.5 10.982c0-1.401.268-2.498.804-3.292.544-.793 1.443-1.19 2.696-1.19 1.253 0 2.148.397 2.683 1.19.545.794.817 1.891.817 3.292 0 1.409-.272 2.514-.817 3.316-.535.801-1.43 1.202-2.683 1.202s-2.152-.4-2.696-1.202c-.536-.802-.804-1.907-.804-3.316Zm5.211 0c0-.6-.043-1.101-.13-1.506-.077-.413-.242-.75-.492-1.008-.242-.26-.605-.389-1.089-.389s-.851.13-1.102.389c-.242.259-.406.595-.492 1.008-.078.405-.117.907-.117 1.506 0 .615.039 1.133.117 1.554.077.413.242.75.492 1.008.25.252.618.377 1.102.377.484 0 .851-.125 1.102-.377.25-.259.415-.595.492-1.008.078-.42.117-.939.117-1.554Z" fill="#393939"/><defs><filter id="Level0LoyaltyRewardIndicator_svg__a" x="0.383" y="11.638" width="16.774" height="18.173" filterUnits="userSpaceOnUse" color-interpolation-filters="sRGB"><feFlood flood-opacity="0" result="BackgroundImageFix"/><feBlend in="SourceGraphic" in2="BackgroundImageFix" result="shape"/><feColorMatrix in="SourceAlpha" values="0 0 0 0 0 0 0 0 0 0 0 0 0 0 0 0 0 0 127 0" result="hardAlpha"/><feOffset dx="1"/><feGaussianBlur stdDeviation="0.5"/><feComposite in2="hardAlpha" operator="arithmetic" k2="-1" k3="1"/><feColorMatrix values="0 0 0 0 1 0 0 0 0 0.829167 0 0 0 0 0.894969 0 0 0 1 0"/><feBlend in2="shape" result="effect1_innerShadow_19996_228120"/></filter><filter id="Level0LoyaltyRewardIndicator_svg__c" x="10.184" y="11.638" width="16.774" height="18.173" filterUnits="userSpaceOnUse" color-interpolation-filters="sRGB"><feFlood flood-opacity="0" result="BackgroundImageFix"/><feBlend in="SourceGraphic" in2="BackgroundImageFix" result="shape"/><feColorMatrix in="SourceAlpha" values="0 0 0 0 0 0 0 0 0 0 0 0 0 0 0 0 0 0 127 0" result="hardAlpha"/><feOffset dx="1"/><feGaussianBlur stdDeviation="0.5"/><feComposite in2="hardAlpha" operator="arithmetic" k2="-1" k3="1"/><feColorMatrix values="0 0 0 0 1 0 0 0 0 0.829167 0 0 0 0 0.894969 0 0 0 1 0"/><feBlend in2="shape" result="effect1_innerShadow_19996_228120"/></filter><filter id="Level0LoyaltyRewardIndicator_svg__e" x="1.91" y="0" width="22.82" height="22.822" filterUnits="userSpaceOnUse" color-interpolation-filters="sRGB"><feFlood flood-opacity="0" result="BackgroundImageFix"/><feBlend in="SourceGraphic" in2="BackgroundImageFix" result="shape"/><feColorMatrix in="SourceAlpha" values="0 0 0 0 0 0 0 0 0 0 0 0 0 0 0 0 0 0 127 0" result="hardAlpha"/><feOffset dx="1" dy="1"/><feGaussianBlur stdDeviation="0.5"/><feComposite in2="hardAlpha" operator="arithmetic" k2="-1" k3="1"/><feColorMatrix values="0 0 0 0 1 0 0 0 0 0.960784 0 0 0 0 0.741176 0 0 0 1 0"/><feBlend in2="shape" result="effect1_innerShadow_19996_228120"/></filter><filter id="Level0LoyaltyRewardIndicator_svg__h" x="4.131" y="3.234" width="19.154" height="18.706" filterUnits="userSpaceOnUse" color-interpolation-filters="sRGB"><feFlood flood-opacity="0" result="BackgroundImageFix"/><feColorMatrix in="SourceAlpha" values="0 0 0 0 0 0 0 0 0 0 0 0 0 0 0 0 0 0 127 0" result="hardAlpha"/><feOffset dy="2"/><feGaussianBlur stdDeviation="2.5"/><feComposite in2="hardAlpha" operator="out"/><feColorMatrix values="0 0 0 0 0.795833 0 0 0 0 0.544786 0 0 0 0 0.179063 0 0 0 1 0"/><feBlend in2="BackgroundImageFix" result="effect1_dropShadow_19996_228120"/><feBlend in="SourceGraphic" in2="effect1_dropShadow_19996_228120" result="shape"/></filter><radialGradient id="Level0LoyaltyRewardIndicator_svg__b" cx="0" cy="0" r="1" gradientUnits="userSpaceOnUse" gradientTransform="matrix(2.18216 10.91082 -6.23476 1.24695 5.82 15.639)"><stop stop-color="#FFF5F9"/><stop offset="1" stop-color="#FC2779"/></radialGradient><radialGradient id="Level0LoyaltyRewardIndicator_svg__d" cx="0" cy="0" r="1" gradientUnits="userSpaceOnUse" gradientTransform="rotate(101.31 3.85 16.231) scale(11.1269 6.35823)"><stop stop-color="#FFF5F9"/><stop offset="1" stop-color="#FC2779"/></radialGradient><radialGradient id="Level0LoyaltyRewardIndicator_svg__f" cx="0" cy="0" r="1" gradientUnits="userSpaceOnUse" gradientTransform="rotate(63.957 4.547 5.986) scale(24.4862 24.1756)"><stop stop-color="#F2DE76"/><stop offset="0.536" stop-color="#FFEA79"/><stop offset="0.761" stop-color="#FFAA35"/><stop offset="1" stop-color="#B96808"/></radialGradient><linearGradient id="Level0LoyaltyRewardIndicator_svg__g" x1="12.819" y1="2.909" x2="18.076" y2="19.061" gradientUnits="userSpaceOnUse"><stop stop-color="#FDED9A"/><stop offset="0" stop-color="#FFF5C5"/><stop offset="1" stop-color="#FFC872"/></linearGradient></defs></svg>